PathFileType        4      (X/Y/Z)      C:\Users\pc\Desktop\IMUTRC\Sujet_07\Sujet_07_velo_100.trc         
DataRate	CameraRate	NumFrames	NumMarkers	Units	OrigDataRate	OrigDataStartFrame	OrigNumFrames
60.0	60.0	4	64	mm	60.0	584	933
Frame#	Time	pHipOrigin			pRightASI			pLeftASI			pRightCSI			pLeftCSI			pRightIschialTub			pLeftIschialTub			pSacrum			pL5SpinalProcess			pL3SpinalProcess			pT12SpinalProcess			pIJ			pT4SpinalProcess			pT8SpinalProcess			pPX			pC7SpinalProcess			pTopOfHead			pRightAuricularis			pLeftAuricularis			pBackOfHead			pRightAcromion			pLeftAcromion			pRightArmLatEpicondyle			pRightArmMedEpicondyle			pLeftArmLatEpicondyle			pLeftArmMedEpicondyle			pRightUlnarStyloid			pRightRadialStyloid			pRightOlecranon			pLeftUlnarStyloid			pLeftRadialStyloid			pLeftOlecranon			pRightTopOfHand			pRightPinky			pRightBallHand			pLeftTopOfHand			pLeftPinky			pLeftBallHand			pRightGreaterTrochanter			pRightKneeLatEpicondyle			pRightKneeMedEpicondyle			pRightPatella			pLeftGreaterTrochanter			pLeftKneeLatEpicondyle			pLeftKneeMedEpicondyle			pLeftPatella			pRightTibialTub			pRightLatMalleolus			pRightMedMalleolus			pLeftTibialTub			pLeftLatMalleolus			pLeftMedMalleolus			pRightHeelFoot			pRightFirstMetatarsal			pRightFifthMetatarsal			pRightPivotFoot			pRightHeelCenter			pRightToe			pLeftHeelFoot			pLeftFirstMetatarsal			pLeftFifthMetatarsal			pLeftPivotFoot			pLeftHeelCenter			pLeftToe			
		X1	Y1	Z1	X2	Y2	Z2	X3	Y3	Z3	X4	Y4	Z4	X5	Y5	Z5	X6	Y6	Z6	X7	Y7	Z7	X8	Y8	Z8	X9	Y9	Z9	X10	Y10	Z10	X11	Y11	Z11	X12	Y12	Z12	X13	Y13	Z13	X14	Y14	Z14	X15	Y15	Z15	X16	Y16	Z16	X17	Y17	Z17	X18	Y18	Z18	X19	Y19	Z19	X20	Y20	Z20	X21	Y21	Z21	X22	Y22	Z22	X23	Y23	Z23	X24	Y24	Z24	X25	Y25	Z25	X26	Y26	Z26	X27	Y27	Z27	X28	Y28	Z28	X29	Y29	Z29	X30	Y30	Z30	X31	Y31	Z31	X32	Y32	Z32	X33	Y33	Z33	X34	Y34	Z34	X35	Y35	Z35	X36	Y36	Z36	X37	Y37	Z37	X38	Y38	Z38	X39	Y39	Z39	X40	Y40	Z40	X41	Y41	Z41	X42	Y42	Z42	X43	Y43	Z43	X44	Y44	Z44	X45	Y45	Z45	X46	Y46	Z46	X47	Y47	Z47	X48	Y48	Z48	X49	Y49	Z49	X50	Y50	Z50	X51	Y51	Z51	X52	Y52	Z52	X53	Y53	Z53	X54	Y54	Z54	X55	Y55	Z55	X56	Y56	Z56	X57	Y57	Z57	X58	Y58	Z58	X59	Y59	Z59	X60	Y60	Z60	X61	Y61	Z61	X62	Y62	Z62	X63	Y63	Z63	X64	Y64	Z64	
584	9.717	0.0	1249.97763	7.653905517926474E-14	122.6081074372514	1326.46293	122.83518849881713	79.78624055938886	1317.77479	-158.09484239377417	100.03195416159242	1407.84922	98.225233011721	64.79882398721774	1400.7205	-132.878455416574	-66.09485331424892	1217.00727	70.22212405909143	-83.67925354806673	1213.44291	-45.311161315310116	-57.129146643159324	1295.79455	7.316744579005012	18.516741785554924	1381.85907	-6.972877563214704	107.76984727353641	1466.21567	-24.03877100170327	193.6954054165741	1538.6168	-40.539223374158205	455.72427479243566	1491.09196	-81.06891818297922	375.5682406078001	1626.68627	-73.67049444196262	288.40358378984695	1595.94364	-58.14268020896279	338.5818396504593	1444.08692	-59.9547887947341	432.1928601531022	1645.17641	-81.45001245368358	704.4553765567181	1615.47338	-111.78404386130138	608.9210235982487	1597.0575	-32.74951066901407	596.476047887109	1620.44864	-175.15488043835964	599.8196221853245	1664.78041	-94.51032100175034	438.03205734457157	1580.20104	108.93164133527802	398.13070461098386	1615.6219	-261.1164484394209	476.6137617150799	1306.0421	88.59140912295544	445.81730011539764	1304.25992	31.882725306948934	404.77799985807053	1314.95301	-268.7685015402861	366.7378946278353	1308.78963	-216.99004655625205	555.7554657129573	1059.58123	50.42503680105472	605.1115489646877	1081.8585	51.22507294645823	436.0381998199468	1298.1708	62.33550387098173	452.55315833514896	1057.3535	-252.160883362241	501.80553134686994	1073.83868	-267.36935581187583	361.45765916247774	1308.12131	-237.10189045432563	734.8622350768546	1019.33363	164.80777228326366	660.7454907391638	999.35834	108.72593916773707	612.4857596890962	1040.05149	60.28430530606352	598.0915975898872	992.37813	-399.38917460572463	540.4212278973025	983.61574	-324.30318420688735	505.85185606338337	1032.69999	-272.15005580479874	26.01625505990934	1224.6558	174.59240441356624	259.84947815416353	847.20459	167.60194151672977	268.7036551424426	846.46201	82.16691711382325	303.4451893922938	874.8284	125.80489466018659	-3.9360598584897986	1227.84888	-177.19280434346325	336.3606026506351	946.18993	-223.0385134553869	355.1550416001483	944.85329	-139.30407661569524	373.70115190048637	984.7296	-183.9021619386572	321.4817280117679	812.5263	127.3865333785792	240.7422524270579	407.97108	164.45894726776388	245.693623073401	406.26315	99.15014174119241	358.8708230121871	889.23437	-185.69057881116635	11.839721122779551	663.34285	-176.74491853210063	23.112337271765657	658.07056	-112.35862243636596	173.58986592629415	347.3769	122.60167253658905	328.36426200387285	283.73817	95.86163481943356	320.79112633579115	280.32232	174.91941056916315	345.29008210367675	273.11933	135.90183444680278	212.51776946370123	335.64421	125.86976577765982	429.24405020812446	234.80243	142.27175619288235	-63.535652366263214	617.82296	-134.26042200959836	72.97157635171018	517.35247	-137.67763774955364	57.06695918994186	528.93665	-214.684672750439	82.80666560775313	510.00097	-180.70265203799485	-29.135644320839447	598.36748	-144.23892372505046	153.64609222428672	455.49592	-203.59795811687812	
585	9.733	0.0	1249.97763	7.653905517926474E-14	123.54823058159366	1325.12629	122.69200744744495	79.04899450801668	1318.8144	-158.00601477511805	101.06089626433679	1406.80962	98.81929301172102	64.41759003370278	1401.61159	-132.06961883951575	-65.77330674207779	1216.63599	70.40776905909144	-84.05783168752183	1214.03697	-45.10100474313899	-57.00318902450316	1295.86881	7.989679583892163	18.734182836927104	1381.85907	-6.161376511842521	107.99723727842357	1466.14141	-23.393022043301162	193.9055619887452	1538.46828	-40.160645234703104	455.7939147875485	1491.09196	-82.22913819275354	375.580854035629	1626.61202	-74.43492153981983	288.51496878984693	1595.86938	-58.33560468816384	338.7403036039742	1444.08692	-60.37777641339028	432.22537514821505	1645.10215	-82.54593007722688	704.3075718402048	1613.61694	-113.75577858270186	608.8004085884743	1595.64661	-34.61979934392956	596.2440392170806	1620.00309	-176.83224963407406	600.1392232269225	1663.81506	-95.95496624394981	439.0862213029737	1580.34955	107.99685579981762	397.11171146175445	1615.54764	-261.8762605323909	476.6137617150799	1305.89358	88.59140912295544	445.50304168268156	1303.88863	32.130016879120085	403.9791072345272	1314.87875	-269.315478926517	365.84751857157596	1308.71537	-217.67558998896808	554.7457062337562	1058.98717	51.72845152245524	604.1833289646877	1081.04167	52.832797147059786	435.9095777269767	1298.02228	62.26124387098172	451.4048328094629	1057.20499	-250.76598520812448	500.81300896063897	1073.54165	-265.79875661127426	360.56728810621837	1308.12131	-237.78744254729574	733.3326755976535	1018.73957	167.01150701443842	659.3644462599626	998.69003	110.67243837322584	611.4189686426112	1039.30892	61.9835215996352	597.7394952134306	991.26427	-396.84861540023593	539.6832679021896	982.94742	-321.98540000139855	504.8122510633833	1032.40296	-270.34940712499605	25.086084529336105	1223.54194	174.5698470322224	239.92931848820436	834.95209	169.13431015305528	248.84780652296845	833.46694	83.73641575014878	284.9524428755641	860.19966	127.38967119865492	-3.26312119334861	1230.44789	-177.31874830186538	348.344822607158	963.41768	-225.37991130916546	366.7335023707311	961.56124	-141.5367589437876	383.9039058007499	1002.77419	-185.38569007103519	301.3142854338917	799.38271	128.6046485821887	218.07527304458537	395.64432	168.5212072123225	222.23503920684027	393.63937	103.09836087169117	371.1765895408811	906.6849	-187.84633166494487	27.80913686673658	675.29832	-178.41461796782457	39.24750510869276	670.17455	-114.01837291857495	147.68754523558854	338.46599	125.13898800683377	299.31542762359027	267.84705	97.6112518667366	291.1535609041364	263.09456	176.5006197094362	315.48676457905185	255.52029	137.47309463356086	185.9895877216234	324.8026	128.30298438735966	397.2787429572119	213.04496	143.2807524310126	-45.46321533362167	625.76852	-136.60234116672282	95.57957863632548	531.98121	-142.97438636414063	78.75206176293094	544.53074	-219.57105217419868	105.52605289236844	526.04061	-186.19232513178287	-10.25899937628082	608.16948	-147.2312118454642	178.82254004436243	475.39695	-210.67012489535594	
586	9.75	0.0	1249.97763	7.653905517926474E-14	124.62691111216688	1323.7154	122.45733796335672	78.34887479639046	1319.70549	-157.98151186320095	102.25559046005124	1405.6215	99.42330196523598	64.23922451290385	1402.35416	-131.31514069517348	-65.41463016990667	1216.33896	70.5291030126064	-84.47353116672288	1214.70529	-44.82653212448283	-56.71149297313098	1296.01733	8.672567202548324	19.21880336750035	1381.78482	-5.367103893186364	108.52894042276583	1465.91864	-22.828798903846053	194.39285199363235	1538.24551	-39.96505628118812	456.0564842618624	1490.79493	-83.27798186278184	375.86065560291297	1626.31499	-75.21657207039307	288.86636588281704	1595.57235	-58.647202306820006	339.1288170366903	1443.71563	-60.75368141827741	432.55225066901403	1644.80512	-83.55763508700117	704.4640852631464	1611.83476	-115.80904778330348	608.946964397647	1594.16146	-36.507321451561054	596.2149076400224	1619.40903	-178.5639722625045	600.6616927012362	1662.77545	-97.4539699188653	440.40757840083097	1580.34955	107.04483817138718	396.4613424984652	1615.10209	-262.680468444308	476.71519776156487	1305.59655	88.56423673672447	445.3644756361966	1303.51734	32.2215003118361	403.3459717039539	1314.50746	-269.8525160194871	365.21437438074867	1308.34408	-218.21263208193815	553.9587130943012	1058.31885	52.646003625199604	603.4878365784567	1080.15058	53.88892529628922	435.8452753407457	1297.72525	62.22411887098172	450.6450293767469	1056.75944	-249.74698705889503	500.1446889606389	1072.94759	-264.6411924155598	359.84265548267507	1307.82428	-238.4630420264967	732.2115311184525	1018.07125	168.50784621504005	658.4189978272467	997.94745	112.01298309462638	610.6220315496412	1038.49208	63.066817135095626	597.5286283577728	990.22466	-394.9982232926043	539.1879794743609	982.20485	-320.38495527999805	504.13397844961435	1031.8089	-269.0261044965656	24.55171191067994	1222.57659	174.6043075579085	223.4553756463901	825.59564	170.3412361560632	232.2081165881841	823.44217	84.93338413938768	269.41861451783797	848.83825	128.45341115029066	-2.921681714147553	1232.97265	-177.4645988275515	357.9986362701093	979.16029	-227.6948470601996	376.0830102147353	976.63553	-143.7701415553667	392.0162568401578	1019.0366	-186.96143424012388	284.31591892693626	788.16982	129.68028301791267	193.46180311687814	386.21361	171.20242767768008	197.35438113967797	383.91162	105.79680476976478	382.26776030657663	922.4275	-190.27460294655225	45.30279180152091	681.75873	-181.09069712494906	56.87973108996213	676.85773	-116.78594416866949	120.90746191645246	332.37687	126.22633294650525	269.8164195781665	256.04009	99.10097257429364	260.73433128165436	250.54503	177.80203094267938	285.09472100305493	242.52522	138.875938253035	158.60088544408518	317.15407	129.55340828543325	365.0435867527845	196.63404	144.9056607670001	-25.06500433280371	628.44179	-140.00233900364995	120.56771698208728	542.22876	-149.12633156556018	102.68870062460452	555.59512	-225.386886845045	130.5241401916452	537.7733	-192.51002242617247	10.970614243193289	612.92196	-151.18014125944958	206.20344653935362	491.43658	-218.44170610197335	
587	9.767	0.0	1249.97763	7.653905517926474E-14	126.1955511219412	1322.08173	121.81957376764228	77.26290978661615	1320.37381	-158.1797652910298	104.14310756768276	1404.28486	99.56986643466274	63.90506451290385	1402.94822	-130.7363585973163	-64.93728911853448	1216.19044	70.89044405909144	-85.13918169240895	1215.52212	-44.267651593909584	-56.365438489042766	1296.31436	9.558323253920504	19.879124944558626	1381.71056	-4.728634413985306	109.31059595333906	1465.54735	-22.54900599681613	195.16722804500455	1537.65145	-40.11819494632932	456.5888976896913	1490.05235	-84.94272897041336	376.44743612371184	1625.64667	-76.67844574530857	289.6162203620181	1594.90404	-59.500448363079315	339.8143741296603	1443.12157	-61.644061134790775	433.1217990968429	1644.1368	-85.28670190137181	704.7717781604022	1610.49812	-118.71822751447833	609.5762038670738	1592.67631	-39.23085618273588	596.3641415837631	1618.88923	-181.05017303527723	601.3253840360951	1661.66159	-99.643137031384	442.2016665451732	1580.27529	105.42254635212943	396.2465622611529	1614.211	-264.0906581608213	477.05930671507986	1305.07675	87.81970254589717	445.5700135432265	1302.99754	31.56845821397888	402.89846751312666	1313.54211	-270.7110960243743	364.5739543709744	1307.45299	-219.18259208682525	553.582813089414	1057.50202	52.257481532229555	603.1490579133156	1079.25949	53.43608715683411	436.08793824777564	1297.2797	61.506774386893504	450.21209780457576	1055.7941	-249.73970757969397	499.7018084349528	1071.98224	-264.4681608433887	359.3679789056168	1306.85893	-239.42305807786894	731.7514134997963	1017.32868	168.4136933080101	657.9960152085905	997.13062	111.85451048085733	610.273312591239	1037.67525	62.779736088610555	597.1871888785718	989.18506	-394.8523727669182	538.8094099951597	981.16524	-320.17479370782695	503.79253897041326	1030.84355	-268.88025397087955	25.12321452933611	1221.83402	174.50553598573737	211.29617858712288	818.68968	170.60946324195618	219.4873695240297	815.94215	85.13464436473573	257.7493805980259	840.37289	128.31855718481145	-3.2531722398336456	1235.42315	-177.4845003948354	365.40892938782576	993.64051	-230.87635123906261	383.49329467219786	990.44744	-146.95165073422973	398.08795576704705	1034.03663	-189.45810526975754	270.73658819764063	778.96188	130.32903377383397	166.55114717419875	380.12449	170.5852310354061	170.94096781565472	377.74825	105.20945864828977	392.0084510576108	937.1305	-193.48257422815965	64.87760726687848	683.16962	-185.73779205973338	76.58316364828976	678.56565	-121.35877044319977	93.0176159591116	328.51548	124.18634315988906	240.1669510021695	248.16879	99.21763856533728	229.59313850994295	242.74799	177.82915903158025	254.43086928271563	234.13411	139.26440738842092	130.14681634728925	312.17881	128.04512164315932	333.011303981073	185.86669	146.47620201001752	-2.1626365225023108	625.76852	-145.21488366472195	148.07724557004855	548.09511	-156.8236527721776	128.94383897525347	561.98127	-232.69374042811913	158.04361273312142	545.1248	-200.37308706550593	34.60294362566583	612.55067	-156.91443645109484	235.86572118357424	503.8376	-227.63997285382553	
